<svg width="106" height="37" viewBox="0 0 106 37" fill="none" xmlns="http://www.w3.org/2000/svg">
<path d="M105.237 19.2291C105.065 19.3647 105.119 19.5635 105.092 19.7353C104.875 20.9103 104.3 21.9898 103.447 22.8266C102.154 24.1462 100.835 25.4388 99.5422 26.7404C99.4273 26.8638 99.287 26.9609 99.131 27.0249C98.9749 27.0889 98.8068 27.1182 98.6383 27.111H89.943C88.7065 27.0664 87.5294 26.5697 86.6347 25.715C85.7401 24.8604 85.1901 23.7072 85.0891 22.474C85.0891 21.8956 85.0891 21.3171 85.0891 20.7386C85.0891 20.3499 85.2157 20.2414 85.5953 20.2505H91.9225C92.3328 20.2747 92.7386 20.1541 93.0691 19.9096C93.3995 19.6651 93.6335 19.3122 93.7302 18.9127C93.819 18.491 93.7378 18.0513 93.5042 17.6891C93.2707 17.327 92.9037 17.0716 92.4829 16.9784C92.1393 16.9229 91.7914 16.8987 91.4434 16.9061C89.5181 16.9061 87.5929 16.9061 85.6766 16.9061C85.2428 16.9061 85.0801 16.7796 85.0801 16.3367C85.0801 11.293 85.0801 6.25235 85.0801 1.21471C85.0801 0.455449 85.0801 0.419294 85.8393 0.310828C86.7582 0.119791 87.7099 0.158429 88.6102 0.423318C89.5105 0.688207 90.3316 1.17116 91.0005 1.82935C95.2186 6.04747 99.4368 10.2807 103.655 14.5289C104.506 15.4135 105.032 16.5607 105.146 17.7829C105.146 17.8642 105.146 17.9727 105.237 18.0089V19.2291Z" fill="#29AB00"/>
<path d="M86.2908 36.9637C85.9795 36.8245 85.6459 36.7419 85.3056 36.7196C84.2494 36.4542 83.2865 35.9039 82.5216 35.1288L72.145 24.7522C71.6389 24.237 71.6389 24.237 72.0456 23.6585C73.1441 22.1619 73.7364 20.3538 73.7364 18.4973C73.7364 16.6408 73.1441 14.8328 72.0456 13.3362C71.6569 12.7757 71.6569 12.7667 72.1541 12.2786L81.3918 3.14035C81.4731 3.059 81.5364 2.90534 81.681 2.95958C81.8256 3.01381 81.7533 3.17651 81.7533 3.29401C81.7533 7.69592 81.7533 12.0978 81.7533 16.4907C81.7533 18.6871 81.6268 20.8836 81.8347 23.071C82.0763 24.8475 82.872 26.5026 84.1086 27.8008C85.3451 29.099 86.9596 29.9743 88.7223 30.302C89.4615 30.4105 90.2077 30.4649 90.9548 30.4647H95.6098C95.6912 30.6184 95.6098 30.6907 95.5285 30.763C93.9919 32.2454 92.5366 33.8091 90.9639 35.2824C89.9673 36.2407 88.6646 36.8169 87.2851 36.9094C87.2552 36.904 87.2244 36.9105 87.1991 36.9273C87.1738 36.9442 87.156 36.9701 87.1495 36.9998L86.2908 36.9637Z" fill="#29AB00"/>
<path d="M52.5857 36.8013C51.7071 36.7974 50.8393 36.6068 50.0399 36.2421C49.2405 35.8775 48.5277 35.3471 47.9488 34.6862C47.2799 33.9811 46.5749 33.2942 45.888 32.6072C43.2185 29.9317 40.546 27.2593 37.8705 24.5898C37.5361 24.2644 37.4818 24.0294 37.7801 23.6317C38.9166 22.127 39.5315 20.2929 39.5315 18.4072C39.5315 16.5216 38.9166 14.6874 37.7801 13.1828C37.4909 12.8032 37.5451 12.5862 37.8615 12.2789C41.1817 9.01288 44.496 5.74083 47.8042 2.46274C48.6278 1.48263 49.7074 0.750414 50.9226 0.347657C51.9728 0.0294424 53.0903 0.00704528 54.1524 0.28293C55.2145 0.558815 56.1799 1.12229 56.9425 1.91138C61.0822 6.03308 65.2039 10.1668 69.3076 14.3126C70.4055 15.4396 71.0154 16.9535 71.0052 18.5268C70.9951 20.1001 70.3657 21.6061 69.2533 22.7188C65.0895 26.8706 60.9015 31.0254 56.6894 35.1833C56.1476 35.7128 55.5056 36.1286 54.8009 36.4065C54.0962 36.6843 53.343 36.8185 52.5857 36.8013ZM52.3236 30.3475C54.5428 30.4194 56.702 29.6196 58.3389 28.1195C59.9759 26.6194 60.9606 24.5381 61.0822 22.3211C61.1748 20.635 60.7628 18.9596 59.8989 17.5088C59.0351 16.0579 57.7585 14.8973 56.2321 14.1752C54.7058 13.453 52.9988 13.2021 51.3292 13.4543C49.6596 13.7066 48.103 14.4506 46.8581 15.5914C45.6132 16.7323 44.7364 18.2182 44.3398 19.8595C43.9431 21.5008 44.0445 23.2231 44.631 24.8066C45.2175 26.39 46.2625 27.7628 47.6326 28.7497C49.0028 29.7366 50.6359 30.2929 52.3236 30.3475Z" fill="#29AB00"/>
<path d="M27.1138 6.0871C27.2393 6.27755 27.3783 6.45879 27.5296 6.62943C30.0605 9.18742 32.6365 11.7002 35.1313 14.2944C36.2234 15.4282 36.8214 16.9488 36.7943 18.5228C36.7672 20.0968 36.1171 21.5959 34.9866 22.6914C31.1903 26.4998 27.379 30.2931 23.5525 34.0713C22.7853 34.9407 21.8665 35.6635 20.8409 36.2045C19.7325 36.6938 18.503 36.8399 17.3109 36.624C16.1187 36.4081 15.0185 35.8401 14.1521 34.9933L5.71892 26.551L1.8051 22.6191C1.23386 22.0632 0.779809 21.3985 0.469772 20.6642C0.159736 19.9298 0 19.1408 0 18.3438C0 17.5467 0.159736 16.7577 0.469772 16.0233C0.779809 15.289 1.23386 14.6243 1.8051 14.0684C5.92681 9.94669 10.0666 5.83703 14.2245 1.73943C15.3361 0.646895 16.8256 0.0242558 18.3841 0.00069384C19.9426 -0.0228681 21.4503 0.554456 22.5944 1.61288C22.9366 1.90446 23.2056 2.27224 23.3799 2.68667C23.5541 3.1011 23.6287 3.55063 23.5977 3.99914C23.5344 6.89156 23.5977 9.78399 23.5977 12.6764C23.5977 13.2911 23.5977 13.2911 22.9921 13.2911C21.3742 13.2911 19.7562 13.2911 18.1473 13.2911C16.9521 13.3282 15.7781 13.6175 14.7025 14.14C13.6269 14.6625 12.6738 15.4065 11.9057 16.323C11.1377 17.2396 10.5719 18.3081 10.2456 19.4586C9.91936 20.609 9.83986 21.8154 10.0124 22.9988C10.335 24.9809 11.3344 26.7901 12.8407 28.1183C14.3469 29.4466 16.2669 30.2119 18.2738 30.2841C19.4029 30.29 20.522 30.0728 21.5669 29.6448C22.6117 29.2169 23.5617 28.5866 24.3621 27.7903C25.1626 26.9941 25.7978 26.0474 26.2313 25.0049C26.6647 23.9623 26.8879 22.8443 26.8879 21.7152C26.8879 17.5303 26.8879 13.3362 26.8879 9.15127V6.19557L27.1138 6.0871Z" fill="#29AB00"/>
<path d="M23.5619 19.5551C23.5966 20.6631 23.5452 21.7722 23.4082 22.8723C23.1387 24.1115 22.4208 25.2074 21.3926 25.9496C20.3643 26.6917 19.0981 27.0278 17.8371 26.8933C16.5761 26.7588 15.4093 26.1632 14.5607 25.2208C13.7121 24.2785 13.2416 23.0558 13.2395 21.7877C13.2264 20.4748 13.7231 19.2079 14.625 18.2538C15.5269 17.2996 16.7637 16.7325 18.0753 16.6717C19.7475 16.6084 21.4197 16.6717 23.1009 16.6717C23.4624 16.6717 23.5347 16.8525 23.5347 17.1598C23.5528 17.9462 23.5619 18.7506 23.5619 19.5551Z" fill="#29AB00"/>
<path d="M47.4241 21.8508C47.4711 20.5175 48.0318 19.2539 48.9888 18.3243C49.9459 17.3947 51.2253 16.8711 52.5594 16.8629C53.8936 16.8547 55.1793 17.3626 56.1477 18.2804C57.1161 19.1982 57.6921 20.4549 57.7555 21.7876C57.7886 22.4837 57.6806 23.1794 57.4379 23.8328C57.1953 24.4862 56.8231 25.0837 56.3437 25.5896C55.8642 26.0955 55.2875 26.4992 54.648 26.7764C54.0086 27.0537 53.3197 27.1988 52.6228 27.2031C51.9258 27.2074 51.2352 27.0707 50.5924 26.8013C49.9497 26.5318 49.368 26.1352 48.8824 25.6353C48.3968 25.1353 48.0173 24.5424 47.7667 23.892C47.5161 23.2417 47.3996 22.5474 47.4241 21.8508Z" fill="#29AB00"/>
</svg>
